<?xml version="1.0" encoding="UTF-8"?>
<svg width="128px" height="128px" version="1.1" xmlns="http://www.w3.org/2000/svg">
 <rect width="128" height="128" fill="#6596bd"/>
 <path d="m124.4 31.98-11.6 66.2-44.45 25.57 13.9-69.47z" fill="#080258"/>
 <path d="m17.42 25.48 64.89 28.76-14.01 70.17-65.5-29z"  fill="#660302"/>
 <path d="m82.3 54.26-64.87-28.77 41.5-23 65.5 29.5z"     fill="#c5fb79"/>
 <path d="m115.5 38.5c2.466 3.023 4.249 4.942 6 9 1.428 3.321 1.995 6.654 3 10-1.911 0.9767-3.911 1.643-6 2-4.634 1.052-9.301 1.552-14 1.5-1.724-5.994-5.391-10.16-11-12.5-7.433-3.09-14.43-2.423-21 2-3.98 2.251-6.813 5.584-8.5 10-4.036 12.13-3.036 23.8 3 35 2.037 2.206 4.203 4.206 6.5 6 10.48 4.532 20.48 3.532 30-3 0.984-2.928 1.317-5.928 1-9h-21v-19h41c0.167 14 0 28-0.5 42-8.736 7.284-18.57 12.28-29.5 15h-16c-4.007-1.074-6.475-1.641-10-3-13.83-6.688-22.33-17.69-25.5-33-4.051-17.7-1.218-34.04 8.5-49 6.102-8.572 14.44-13.74 25-15.5 15.26-3.11 28.26 0.7234 39 11.5z" fill="#fdf914"/>
</svg>
