<?xml version="1.0" encoding="UTF-8"?>
<svg width="128px" height="128px" version="1.1" xmlns="http://www.w3.org/2000/svg">
  <rect width="128" height="128" fill="#6596bd"/>
  <path d="m14.1 57.1 20 35-4 7-19.26-34.07z" fill="#333333"/>
  <path d="m14.1 57.1 57.28 10.65 18.72 33.35-56-9z" fill="#fafa11"/>
  <path d="m34.1 92.1 56 9-3.859 6.388-56.14-8.388z" fill="#474747"/>
  <g transform="rotate(-8.061 83.81 69.69)">
    <path d="m15.25 49.5c2.696-19.06 4.015-30.1 6.625-46.25 3.209-2.581 7.918-1.092 9.555 1.767-2.326 16.11-3.673 29.95-6.166 45.36-2.27 3.297-7.101 2.795-10.01-0.8777z" fill="#10c9ca"/>
  </g>
  <g transform="rotate(1.675 -1347 121.7)">
    <path d="m35.68 3.3c3.923-2.171 8.034-1.145 9.671 1.714-2.025 15.95-4.51 31.61-6.847 47.17-3.048 1.756-8.277-0.3195-9.136-4.889 1.427-11.11 4.559-33.12 6.312-43.99z" fill="#10c9ca"/>
  </g>
  <g transform="rotate(18.36 -10.91 212.3)">
    <path d="m14.5 50.5c2.696-19.06 4.889-31.06 7.499-47.21 3.923-2.171 7.794-1.133 9.431 1.727-2.326 16.11-4.048 31.33-6.541 46.74-5.145 2.672-6.851 2.295-10.39-1.253z" fill="#10c9ca"/>
  </g>
  <g transform="rotate(36.46 -17.96 174.9)">
    <path d="m16.14 47.9c2.696-19.06 2.972-27.6 5.582-43.75 3.923-2.171 7.849-1.269 9.486 1.59-2.326 16.11-3.829 30.6-6.322 46.01-5.145 2.672-8.164 0.6054-8.746-3.852z" fill="#10c9ca"/>
  </g>
</svg>
