P3
16 16
255
99  148 189 99  148 189 99  148 189 99  148 189 99  148 189 99  148 189 
99  148 189 99  148 189 99  148 189 99  148 189 99  148 189 99  148 189 
99  148 189 99  148 189 99  148 189 99  148 189 
99  148 189 99  148 189 99  148 189 99  148 189 99  148 189 99  148 189 
99  148 189 99  148 189 99  148 189 99  148 189 99  148 189 99  148 189 
99  148 189 99  148 189 99  148 189 99  148 189 
99  148 189 99  148 189 99  148 189 99  148 189 99  148 189 99  148 189 
99  148 189 99  148 189 99  148 189 99  148 189 99  148 189 37  182 72  
54  173 103 97  148 186 99  148 189 99  148 189 
99  148 189 99  148 189 99  148 189 99  148 189 99  148 189 99  148 189 
99  148 189 99  148 189 99  148 189 99  148 189 67  165 129 0   203 0   
8   199 16  91  152 174 99  148 189 99  148 189 
99  148 189 99  148 189 99  148 189 99  148 189 99  148 189 99  148 189 
99  148 189 99  148 189 99  148 189 91  152 175 9   198 18  0   204 0   
66  166 126 99  148 189 99  148 189 99  148 189 
99  148 189 99  148 189 99  148 189 82  113 136 195 208 54  164 192 109 
114 158 170 99  148 189 99  148 189 36  183 68  0   204 0   32  185 61  
99  148 189 99  148 189 99  148 189 99  148 189 
99  148 189 99  148 189 96  143 182 54  57  60  162 162 23  255 255 0   
253 253 1   218 230 43  112 193 82  0   203 0   7   199 13  90  152 172 
99  148 189 99  148 189 99  148 189 99  148 189 
99  148 189 99  148 189 98  147 188 58  66  72  84  84  42  254 254 0   
255 255 0   240 252 0   27  209 0   0   204 0   144 224 21  124 165 158 
99  148 189 99  148 189 99  148 189 99  148 189 
99  148 189 99  148 189 99  148 189 76  103 125 51  51  51  210 210 11  
255 255 0   219 247 0   47  213 0   77  219 0   254 254 0   187 208 81  
99  148 189 99  148 189 99  148 189 99  148 189 
99  148 189 99  148 189 99  148 189 94  138 175 51  52  53  132 132 30  
255 255 0   255 255 0   250 254 0   236 251 0   255 255 0   243 246 14  
103 150 184 99  148 189 99  148 189 99  148 189 
99  148 189 99  148 189 99  148 189 99  148 189 65  80  92  60  60  48  
150 150 26  216 216 9   254 254 0   255 255 0   255 255 0   255 255 0   
150 183 126 99  148 189 99  148 189 99  148 189 
99  148 189 99  148 189 99  148 189 99  148 189 84  117 146 51  52  52  
52  52  52  52  52  52  78  78  45  146 146 27  209 209 11  254 254 0   
211 224 53  99  148 189 99  148 189 99  148 189 
99  148 189 99  148 189 99  148 189 99  148 189 99  148 189 93  136 172 
77  104 126 62  74  83  52  52  53  52  52  52  52  52  52  75  75  46  
136 137 33  102 148 180 99  148 189 99  148 189 
99  148 189 99  148 189 99  148 189 99  148 189 99  148 189 99  148 189 
99  148 189 99  148 189 94  137 174 79  108 132 63  76  86  52  53  54  
71  90  107 99  148 189 99  148 189 99  148 189 
99  148 189 99  148 189 99  148 189 99  148 189 99  148 189 99  148 189 
99  148 189 99  148 189 99  148 189 99  148 189 99  148 189 95  140 178 
96  143 182 99  148 189 99  148 189 99  148 189 
99  148 189 99  148 189 99  148 189 99  148 189 99  148 189 99  148 189 
99  148 189 99  148 189 99  148 189 99  148 189 99  148 189 99  148 189 
99  148 189 99  148 189 99  148 189 99  148 189 
