<?xml version="1.0" encoding="UTF-8"?>
<svg width="128px" height="128px" version="1.1" xmlns="http://www.w3.org/2000/svg">
 <rect width="128" height="128" fill="#6596bd"/>
 <path d="m124.4 31.98-11.6 66.2-44.45 25.57 13.9-69.47z" fill="#080258"/>
 <path d="m17.42 25.48 64.89 28.76-14.01 70.17-65.5-29z"  fill="#660302"/>
 <path d="m82.3 54.26-64.87-28.77 41.5-23 65.5 29.5z"     fill="#c5fb79"/>
 <path d="m80 83.5s8.059-33.88 12.5-51.5c9.661-0.4998 19.15-0.4897 28.82 0.03033 1.993 31.32 2.177 94.47 2.177 94.47h-21l-0.5-50-10.26 49.18-23.94 0.06065-10.85-49.36-0.4393 50.12h-20l1.945-94.24s18.51-1.051 29.23-0.409c4.541 18.03 12.32 51.65 12.32 51.65z" fill="#fffc10"/>
</svg>
