<?xml version="1.0" encoding="UTF-8"?>
<!DOCTYPE svg PUBLIC "-//W3C//DTD SVG 1.1//EN" "http://www.w3.org/Graphics/SVG/1.1/DTD/svg11.dtd">
<svg xmlns="http://www.w3.org/2000/svg" version="1.1" width="96px" height="96px" style="shape-rendering:geometricPrecision; text-rendering:geometricPrecision; image-rendering:optimizeQuality; fill-rule:evenodd; clip-rule:evenodd" xmlns:xlink="http://www.w3.org/1999/xlink">
<g><path style="opacity:0.004" fill="#000203" d="M 71.5,-0.5 C 72.1667,-0.5 72.8333,-0.5 73.5,-0.5C 73.5,-0.166667 73.5,0.166667 73.5,0.5C 72.8333,0.5 72.5,0.833333 72.5,1.5C 71.5084,1.67158 70.8417,1.33825 70.5,0.5C 71.1667,0.5 71.5,0.166667 71.5,-0.5 Z"/></g>
<g><path style="opacity:0.136" fill="#020408" d="M 73.5,0.5 C 83.0945,3.75655 88.0945,10.4232 88.5,20.5C 88.2951,29.2456 84.2951,35.579 76.5,39.5C 75.7952,41.6721 74.7952,43.6721 73.5,45.5C 82.5789,50.7454 89.4123,58.0788 94,67.5C 94.8999,76.5328 91.3999,83.3662 83.5,88C 75.0901,91.8383 66.4234,94.3383 57.5,95.5C 47.1667,95.5 36.8333,95.5 26.5,95.5C 14.6785,93.0204 6.0118,86.3537 0.5,75.5C 0.62358,74.8933 0.956913,74.56 1.5,74.5C 1.83333,75.8333 2.16667,75.8333 2.5,74.5C 3.33825,74.8417 3.67158,75.5084 3.5,76.5C 2.16667,76.8333 2.16667,77.1667 3.5,77.5C 7.70441,82.6875 13.0377,86.3542 19.5,88.5C 21.2774,89.6005 23.2774,90.4338 25.5,91C 45.38,93.2084 64.38,90.2084 82.5,82C 88.2732,76.8376 89.9399,70.6709 87.5,63.5C 83.3809,55.3821 77.0476,49.7154 68.5,46.5C 69.8032,43.6236 70.3032,40.6236 70,37.5C 68.5387,40.6786 67.7054,44.0119 67.5,47.5C 65.2313,53.2309 63.5646,59.2309 62.5,65.5C 60.9316,70.7407 57.5983,72.4074 52.5,70.5C 51.5,69.8333 50.5,69.1667 49.5,68.5C 49.5,67.5 49.5,66.5 49.5,65.5C 49.5,64.8333 49.8333,64.5 50.5,64.5C 50.5,65.5 50.5,66.5 50.5,67.5C 53.5,67.5 56.5,67.5 59.5,67.5C 59.8333,64.8333 60.1667,62.1667 60.5,59.5C 63.9869,52.3378 65.6535,44.6712 65.5,36.5C 76.4751,35.525 82.4751,29.525 83.5,18.5C 83.4324,15.5619 82.7658,12.8952 81.5,10.5C 80.2195,7.55262 78.2195,5.21929 75.5,3.5C 74.2905,3.06795 73.2905,2.40128 72.5,1.5C 73.1667,1.5 73.5,1.16667 73.5,0.5 Z"/></g>
<g><path style="opacity:1" fill="#2a8ae9" d="M 70.5,0.5 C 70.8417,1.33825 71.5084,1.67158 72.5,1.5C 73.2905,2.40128 74.2905,3.06795 75.5,3.5C 76.8004,7.09608 77.8004,10.7627 78.5,14.5C 75.7464,11.8942 73.0797,9.06091 70.5,6C 66.0564,4.43894 61.723,4.27228 57.5,5.5C 56.8333,5.5 56.5,5.83333 56.5,6.5C 54.8333,7.5 53.5,8.83333 52.5,10.5C 51.8333,10.5 51.5,10.8333 51.5,11.5C 50.3775,13.2884 50.2109,15.2884 51,17.5C 52.8944,20.7398 54.061,24.2398 54.5,28C 55.8333,29 57.1667,30 58.5,31C 63.2196,31.7168 67.8862,31.5502 72.5,30.5C 72.1667,31.1667 71.8333,31.8333 71.5,32.5C 69.8828,33.038 68.2161,33.3713 66.5,33.5C 58.2704,34.6364 52.7704,31.3031 50,23.5C 49.501,19.1794 49.3343,14.8461 49.5,10.5C 53.9388,2.11602 60.9388,-1.21731 70.5,0.5 Z"/></g>
<g><path style="opacity:1" fill="#bdf6ff" d="M 56.5,6.5 C 57.8333,6.5 59.1667,6.5 60.5,6.5C 62.1667,13.5 59.5,16.1667 52.5,14.5C 52.5,13.1667 52.5,11.8333 52.5,10.5C 53.5,8.83333 54.8333,7.5 56.5,6.5 Z"/></g>
<g><path style="opacity:1" fill="#1071c6" d="M 49.5,10.5 C 49.3343,14.8461 49.501,19.1794 50,23.5C 52.7704,31.3031 58.2704,34.6364 66.5,33.5C 63.7131,34.4767 60.7131,34.81 57.5,34.5C 56.8333,34.1667 56.1667,33.8333 55.5,33.5C 53.1394,31.8061 51.1394,29.8061 49.5,27.5C 49.6716,26.5084 49.3382,25.8417 48.5,25.5C 48.6716,24.5084 48.3382,23.8417 47.5,23.5C 46.3632,18.8571 47.0299,14.5238 49.5,10.5 Z"/></g>
<g><path style="opacity:1" fill="#80d6ff" d="M 60.5,6.5 C 61.9708,12.1459 65.4708,16.1459 71,18.5C 71.6667,20.1667 71.6667,21.8333 71,23.5C 68.2415,24.6541 65.5748,24.3208 63,22.5C 60.1645,18.8148 56.6645,16.1481 52.5,14.5C 59.5,16.1667 62.1667,13.5 60.5,6.5 Z"/></g>
<g><path style="opacity:1" fill="#095392" d="M 35.5,12.5 C 36.9723,14.1175 37.639,16.1175 37.5,18.5C 37.639,20.8825 36.9723,22.8825 35.5,24.5C 35.5,20.5 35.5,16.5 35.5,12.5 Z"/></g>
<g><path style="opacity:1" fill="#6fc5ff" d="M 56.5,6.5 C 56.5,5.83333 56.8333,5.5 57.5,5.5C 69.3408,6.49846 74.8408,12.8318 74,24.5C 69.5925,27.9248 64.7591,28.4248 59.5,26C 57.5912,22.3397 55.0912,19.173 52,16.5C 51.5065,14.8659 51.3398,13.1992 51.5,11.5C 51.5,10.8333 51.8333,10.5 52.5,10.5C 52.5,11.8333 52.5,13.1667 52.5,14.5C 56.6645,16.1481 60.1645,18.8148 63,22.5C 65.5748,24.3208 68.2415,24.6541 71,23.5C 71.6667,21.8333 71.6667,20.1667 71,18.5C 65.4708,16.1459 61.9708,12.1459 60.5,6.5C 59.1667,6.5 57.8333,6.5 56.5,6.5 Z"/></g>
<g><path style="opacity:1" fill="#72c7ff" d="M 21.5,9.5 C 28.5562,11.6947 31.7228,16.3613 31,23.5C 27.5535,24.7214 24.0535,24.7214 20.5,23.5C 18.0929,22.0949 16.4262,20.0949 15.5,17.5C 16.552,17.3505 17.552,17.5172 18.5,18C 20.9788,21.4062 24.3121,22.9062 28.5,22.5C 28.5,21.1667 28.5,19.8333 28.5,18.5C 23.656,17.6383 21.3227,14.6383 21.5,9.5 Z"/></g>
<g><path style="opacity:1" fill="#3e98f3" d="M 19.5,6.5 C 28.1115,6.45733 33.1115,10.624 34.5,19C 34.3917,20.6811 33.7251,21.8478 32.5,22.5C 32.6633,20.1432 32.4966,17.8098 32,15.5C 29.6903,11.3531 26.1903,9.01981 21.5,8.5C 20.2739,8.51954 19.2739,8.85287 18.5,9.5C 17.1667,10.1667 16.1667,11.1667 15.5,12.5C 15.1667,12.5 14.8333,12.5 14.5,12.5C 13.8529,13.2739 13.5195,14.2739 13.5,15.5C 14.4698,18.4373 15.1365,21.4373 15.5,24.5C 17.7834,24.6079 19.7834,25.4412 21.5,27C 24.146,27.4974 26.8127,27.6641 29.5,27.5C 21.525,31.3352 16.025,29.0019 13,20.5C 12.5034,18.1902 12.3367,15.8568 12.5,13.5C 13.5,9.83333 15.8333,7.5 19.5,6.5 Z"/></g>
<g><path style="opacity:1" fill="#82d8ff" d="M 20.5,9.5 C 20.8333,9.5 21.1667,9.5 21.5,9.5C 21.3227,14.6383 23.656,17.6383 28.5,18.5C 28.5,19.8333 28.5,21.1667 28.5,22.5C 24.3121,22.9062 20.9788,21.4062 18.5,18C 17.552,17.5172 16.552,17.3505 15.5,17.5C 14.5489,16.0813 14.2155,14.4147 14.5,12.5C 14.8333,12.5 15.1667,12.5 15.5,12.5C 15.5,13.5 15.5,14.5 15.5,15.5C 19.9083,15.938 21.5749,13.938 20.5,9.5 Z"/></g>
<g><path style="opacity:1" fill="#c3faff" d="M 18.5,9.5 C 19.1667,9.5 19.8333,9.5 20.5,9.5C 21.5749,13.938 19.9083,15.938 15.5,15.5C 15.5,14.5 15.5,13.5 15.5,12.5C 16.1667,11.1667 17.1667,10.1667 18.5,9.5 Z"/></g>
<g><path style="opacity:1" fill="#62b6fe" d="M 18.5,9.5 C 19.2739,8.85287 20.2739,8.51954 21.5,8.5C 26.1903,9.01981 29.6903,11.3531 32,15.5C 32.4966,17.8098 32.6633,20.1432 32.5,22.5C 31.925,24.4113 30.925,26.078 29.5,27.5C 26.8127,27.6641 24.146,27.4974 21.5,27C 19.7834,25.4412 17.7834,24.6079 15.5,24.5C 15.1365,21.4373 14.4698,18.4373 13.5,15.5C 13.5195,14.2739 13.8529,13.2739 14.5,12.5C 14.2155,14.4147 14.5489,16.0813 15.5,17.5C 16.4262,20.0949 18.0929,22.0949 20.5,23.5C 24.0535,24.7214 27.5535,24.7214 31,23.5C 31.7228,16.3613 28.5562,11.6947 21.5,9.5C 21.1667,9.5 20.8333,9.5 20.5,9.5C 19.8333,9.5 19.1667,9.5 18.5,9.5 Z"/></g>
<g><path style="opacity:0.008" fill="#030810" d="M 47.5,23.5 C 48.3382,23.8417 48.6716,24.5084 48.5,25.5C 49.3382,25.8417 49.6716,26.5084 49.5,27.5C 48.8333,27.5 48.5,27.8333 48.5,28.5C 46.31,27.2524 45.9766,25.5857 47.5,23.5 Z"/></g>
<g><path style="opacity:0.154" fill="#0e0f12" d="M 49.5,27.5 C 51.1394,29.8061 53.1394,31.8061 55.5,33.5C 55.2962,36.5176 54.9629,39.5176 54.5,42.5C 53.8333,42.1667 53.1667,41.8333 52.5,41.5C 52.5,41.1667 52.5,40.8333 52.5,40.5C 53.3235,38.5454 53.4901,36.5454 53,34.5C 52.6667,34.8333 52.3333,35.1667 52,35.5C 50.295,33.4234 49.1283,31.09 48.5,28.5C 49.1667,28.5 49.5,28.1667 49.5,27.5 Z"/></g>
<g><path style="opacity:1" fill="#1867b2" d="M 29.5,5.5 C 29.5,6.16667 29.8333,6.5 30.5,6.5C 32.8598,7.86505 34.5265,9.86505 35.5,12.5C 35.5,16.5 35.5,20.5 35.5,24.5C 34.8645,26.7946 33.5311,28.4613 31.5,29.5C 29.0075,30.7736 26.3408,31.4403 23.5,31.5C 18.646,30.913 14.9793,28.5797 12.5,24.5C 12.1667,24.5 11.8333,24.5 11.5,24.5C 9.88769,20.5325 10.221,16.8658 12.5,13.5C 12.3367,15.8568 12.5034,18.1902 13,20.5C 16.025,29.0019 21.525,31.3352 29.5,27.5C 30.925,26.078 31.925,24.4113 32.5,22.5C 33.7251,21.8478 34.3917,20.6811 34.5,19C 33.1115,10.624 28.1115,6.45733 19.5,6.5C 20.9972,5.69423 22.6639,5.02756 24.5,4.5C 26.0709,5.30937 27.7376,5.64271 29.5,5.5 Z"/></g>
<g><path style="opacity:1" fill="#52a4f7" d="M 57.5,5.5 C 61.723,4.27228 66.0564,4.43894 70.5,6C 73.0797,9.06091 75.7464,11.8942 78.5,14.5C 79.0411,19.449 78.2078,24.1156 76,28.5C 75.1841,29.8228 74.0174,30.4894 72.5,30.5C 67.8862,31.5502 63.2196,31.7168 58.5,31C 57.1667,30 55.8333,29 54.5,28C 54.061,24.2398 52.8944,20.7398 51,17.5C 50.2109,15.2884 50.3775,13.2884 51.5,11.5C 51.3398,13.1992 51.5065,14.8659 52,16.5C 55.0912,19.173 57.5912,22.3397 59.5,26C 64.7591,28.4248 69.5925,27.9248 74,24.5C 74.8408,12.8318 69.3408,6.49846 57.5,5.5 Z"/></g>
<g><path style="opacity:1" fill="#2070bf" d="M 75.5,3.5 C 78.2195,5.21929 80.2195,7.55262 81.5,10.5C 82.8156,18.4216 80.8156,25.2549 75.5,31C 74.255,31.7914 72.9217,32.2914 71.5,32.5C 71.8333,31.8333 72.1667,31.1667 72.5,30.5C 74.0174,30.4894 75.1841,29.8228 76,28.5C 78.2078,24.1156 79.0411,19.449 78.5,14.5C 77.8004,10.7627 76.8004,7.09608 75.5,3.5 Z"/></g>
<g><path style="opacity:0.834" fill="#0a0c0d" d="M 29.5,5.5 C 35.7349,6.19993 39.9016,9.8666 42,16.5C 42.6288,21.5926 41.7955,26.7593 39.5,32C 41.0263,34.8064 41.3596,37.6397 40.5,40.5C 38.7483,40.4176 37.7483,41.2509 37.5,43C 41.8509,50.4964 39.8509,54.6631 31.5,55.5C 30.8333,55.5 30.5,55.1667 30.5,54.5C 30.6716,53.5084 30.3382,52.8417 29.5,52.5C 29.405,50.2143 28.7384,48.2143 27.5,46.5C 27.7148,44.8212 27.0481,43.8212 25.5,43.5C 25.4226,42.2502 24.756,41.4169 23.5,41C 24.4506,40.2825 24.6172,39.4491 24,38.5C 23.3457,39.6956 22.8457,39.6956 22.5,38.5C 23.3256,37.549 23.4922,36.549 23,35.5C 22.6667,35.8333 22.3333,36.1667 22,36.5C 17.3841,34.2177 13.7174,30.8844 11,26.5C 10.3083,25.5632 10.475,24.8966 11.5,24.5C 11.8333,25.8333 12.1667,25.8333 12.5,24.5C 14.9793,28.5797 18.646,30.913 23.5,31.5C 23.6596,33.153 24.3263,34.4863 25.5,35.5C 27.4372,41.6433 29.7705,47.6433 32.5,53.5C 33.1835,53.1373 33.8501,52.8039 34.5,52.5C 35.6378,49.6965 35.8045,46.6965 35,43.5C 33.8288,38.8151 32.6621,34.1484 31.5,29.5C 33.5311,28.4613 34.8645,26.7946 35.5,24.5C 36.9723,22.8825 37.639,20.8825 37.5,18.5C 37.639,16.1175 36.9723,14.1175 35.5,12.5C 34.5265,9.86505 32.8598,7.86505 30.5,6.5C 29.8333,6.5 29.5,6.16667 29.5,5.5 Z"/></g>
<g><path style="opacity:1" fill="#09589b" d="M 81.5,10.5 C 82.7658,12.8952 83.4324,15.5619 83.5,18.5C 82.4751,29.525 76.4751,35.525 65.5,36.5C 64.5,36.5 63.5,36.5 62.5,36.5C 61.1667,36.1667 59.8333,35.8333 58.5,35.5C 57.8333,35.5 57.5,35.1667 57.5,34.5C 60.7131,34.81 63.7131,34.4767 66.5,33.5C 68.2161,33.3713 69.8828,33.038 71.5,32.5C 72.9217,32.2914 74.255,31.7914 75.5,31C 80.8156,25.2549 82.8156,18.4216 81.5,10.5 Z"/></g>
<g><path style="opacity:1" fill="#49494a" d="M 31.5,29.5 C 32.6621,34.1484 33.8288,38.8151 35,43.5C 35.8045,46.6965 35.6378,49.6965 34.5,52.5C 33.6499,46.4465 32.4832,40.4465 31,34.5C 28.6612,32.9221 26.8278,33.2554 25.5,35.5C 24.3263,34.4863 23.6596,33.153 23.5,31.5C 26.3408,31.4403 29.0075,30.7736 31.5,29.5 Z"/></g>
<g><path style="opacity:1" fill="#6a6a6a" d="M 58.5,35.5 C 59.8333,35.8333 61.1667,36.1667 62.5,36.5C 63.3909,37.2613 64.0576,38.2613 64.5,39.5C 62.5167,46.0897 61.1834,52.7564 60.5,59.5C 58.1663,61.1757 57.1663,63.509 57.5,66.5C 56.5,66.5 55.5,66.5 54.5,66.5C 57.3761,56.4955 58.7095,46.1621 58.5,35.5 Z"/></g>
<g><path style="opacity:1" fill="#4b4b4c" d="M 68.5,46.5 C 68.5,47.1667 68.1667,47.5 67.5,47.5C 67.7054,44.0119 68.5387,40.6786 70,37.5C 70.3032,40.6236 69.8032,43.6236 68.5,46.5 Z"/></g>
<g><path style="opacity:1" fill="#2992f7" d="M 52.5,41.5 C 52.5,42.5 52.5,43.5 52.5,44.5C 48.1667,44.5 43.8333,44.5 39.5,44.5C 39.5,43.5 39.5,42.5 39.5,41.5C 43.8333,41.5 48.1667,41.5 52.5,41.5 Z"/></g>
<g><path style="opacity:1" fill="#808080" d="M 34.5,52.5 C 33.8501,52.8039 33.1835,53.1373 32.5,53.5C 29.7705,47.6433 27.4372,41.6433 25.5,35.5C 26.8278,33.2554 28.6612,32.9221 31,34.5C 32.4832,40.4465 33.6499,46.4465 34.5,52.5 Z"/></g>
<g><path style="opacity:1" fill="#2e2e2e" d="M 62.5,36.5 C 63.5,36.5 64.5,36.5 65.5,36.5C 65.6535,44.6712 63.9869,52.3378 60.5,59.5C 61.1834,52.7564 62.5167,46.0897 64.5,39.5C 64.0576,38.2613 63.3909,37.2613 62.5,36.5 Z"/></g>
<g><path style="opacity:1" fill="#4eacfa" d="M 39.5,44.5 C 43.8333,44.5 48.1667,44.5 52.5,44.5C 52.6747,46.6208 52.3414,48.6208 51.5,50.5C 48.1667,50.5 44.8333,50.5 41.5,50.5C 40.5418,48.6976 39.8751,46.6976 39.5,44.5 Z"/></g>
<g><path style="opacity:1" fill="#2b6cac" d="M 40.5,40.5 C 44.5,40.5 48.5,40.5 52.5,40.5C 52.5,40.8333 52.5,41.1667 52.5,41.5C 48.1667,41.5 43.8333,41.5 39.5,41.5C 39.5,42.5 39.5,43.5 39.5,44.5C 39.8751,46.6976 40.5418,48.6976 41.5,50.5C 41.5,51.5 41.5,52.5 41.5,53.5C 44.8333,53.5 48.1667,53.5 51.5,53.5C 51.7678,55.099 51.4345,56.4324 50.5,57.5C 50.6716,56.5084 50.3382,55.8417 49.5,55.5C 43.7053,55.4399 38.0387,56.1065 32.5,57.5C 32.5,56.8333 32.1667,56.5 31.5,56.5C 31.5,56.1667 31.5,55.8333 31.5,55.5C 39.8509,54.6631 41.8509,50.4964 37.5,43C 37.7483,41.2509 38.7483,40.4176 40.5,40.5 Z"/></g>
<g><path style="opacity:1" fill="#1b8aec" d="M 41.5,50.5 C 44.8333,50.5 48.1667,50.5 51.5,50.5C 51.5,51.5 51.5,52.5 51.5,53.5C 48.1667,53.5 44.8333,53.5 41.5,53.5C 41.5,52.5 41.5,51.5 41.5,50.5 Z"/></g>
<g><path style="opacity:1" fill="#9ae3ff" d="M 19.5,49.5 C 20.5,49.5 21.5,49.5 22.5,49.5C 19.9055,55.6139 15.9055,60.7806 10.5,65C 8.93426,65.765 7.60093,65.5983 6.5,64.5C 12.0387,61.9674 16.372,57.9674 19.5,52.5C 18.675,51.6143 17.675,51.281 16.5,51.5C 16.9731,50.0937 17.9731,49.427 19.5,49.5 Z"/></g>
<g><path style="opacity:1" fill="#6ac6fa" d="M 49.5,55.5 C 49.8799,59.1569 48.5466,60.1569 45.5,58.5C 39.5765,59.5042 35.2432,62.6708 32.5,68C 33.0442,68.7172 33.7109,69.2172 34.5,69.5C 33.4863,70.6737 32.153,71.3404 30.5,71.5C 29.3054,71.1344 28.6387,70.301 28.5,69C 28.9448,64.4078 31.2782,61.4078 35.5,60C 34.2625,59.7679 33.2625,59.2679 32.5,58.5C 32.5,58.1667 32.5,57.8333 32.5,57.5C 38.0387,56.1065 43.7053,55.4399 49.5,55.5 Z"/></g>
<g><path style="opacity:1" fill="#58adf9" d="M 30.5,54.5 C 30.5,55.1667 30.8333,55.5 31.5,55.5C 31.5,55.8333 31.5,56.1667 31.5,56.5C 28.404,56.9347 25.404,57.4347 22.5,58C 24.8175,56.0073 27.4842,54.8406 30.5,54.5 Z"/></g>
<g><path style="opacity:1" fill="#2282db" d="M 29.5,52.5 C 30.3382,52.8417 30.6716,53.5084 30.5,54.5C 27.4842,54.8406 24.8175,56.0073 22.5,58C 25.404,57.4347 28.404,56.9347 31.5,56.5C 32.1667,56.5 32.5,56.8333 32.5,57.5C 32.5,57.8333 32.5,58.1667 32.5,58.5C 27.7279,59.0928 23.0612,60.0928 18.5,61.5C 18.2965,59.6096 18.9632,58.1096 20.5,57C 23.2432,54.9617 26.2432,53.4617 29.5,52.5 Z"/></g>
<g><path style="opacity:1" fill="#acacab" d="M 55.5,33.5 C 56.1667,33.8333 56.8333,34.1667 57.5,34.5C 57.5,35.1667 57.8333,35.5 58.5,35.5C 58.7095,46.1621 57.3761,56.4955 54.5,66.5C 53.5,66.5 52.5,66.5 51.5,66.5C 52.1054,58.4451 53.1054,50.4451 54.5,42.5C 54.9629,39.5176 55.2962,36.5176 55.5,33.5 Z"/></g>
<g><path style="opacity:1" fill="#65bffe" d="M 27.5,46.5 C 28.7384,48.2143 29.405,50.2143 29.5,52.5C 26.2432,53.4617 23.2432,54.9617 20.5,57C 18.9632,58.1096 18.2965,59.6096 18.5,61.5C 23.0612,60.0928 27.7279,59.0928 32.5,58.5C 33.2625,59.2679 34.2625,59.7679 35.5,60C 31.2782,61.4078 28.9448,64.4078 28.5,69C 28.6387,70.301 29.3054,71.1344 30.5,71.5C 28.6397,72.9387 26.973,74.6053 25.5,76.5C 22.7396,73.8886 20.0729,71.0553 17.5,68C 13.5138,67.5012 9.51383,67.3345 5.5,67.5C 5.5,66.1667 5.5,64.8333 5.5,63.5C 5.5,62.8333 5.83333,62.5 6.5,62.5C 6.5,63.1667 6.5,63.8333 6.5,64.5C 7.60093,65.5983 8.93426,65.765 10.5,65C 15.9055,60.7806 19.9055,55.6139 22.5,49.5C 21.5,49.5 20.5,49.5 19.5,49.5C 21.6975,47.6031 24.3642,46.6031 27.5,46.5 Z"/></g>
<g><path style="opacity:1" fill="#cdfaff" d="M 16.5,51.5 C 17.675,51.281 18.675,51.6143 19.5,52.5C 16.372,57.9674 12.0387,61.9674 6.5,64.5C 6.5,63.8333 6.5,63.1667 6.5,62.5C 8.4416,57.5588 11.7749,53.8922 16.5,51.5 Z"/></g>
<g><path style="opacity:1" fill="#517189" d="M 67.5,47.5 C 67.2155,49.4147 67.5489,51.0813 68.5,52.5C 66.9675,56.686 65.9675,61.0193 65.5,65.5C 64.5,65.5 63.5,65.5 62.5,65.5C 63.5646,59.2309 65.2313,53.2309 67.5,47.5 Z"/></g>
<g><path style="opacity:1" fill="#75d1fd" d="M 49.5,55.5 C 50.3382,55.8417 50.6716,56.5084 50.5,57.5C 50.5,59.8333 50.5,62.1667 50.5,64.5C 49.8333,64.5 49.5,64.8333 49.5,65.5C 44.5166,66.8311 39.5166,68.1644 34.5,69.5C 33.7109,69.2172 33.0442,68.7172 32.5,68C 35.2432,62.6708 39.5765,59.5042 45.5,58.5C 48.5466,60.1569 49.8799,59.1569 49.5,55.5 Z"/></g>
<g><path style="opacity:1" fill="#424347" d="M 52.5,41.5 C 53.1667,41.8333 53.8333,42.1667 54.5,42.5C 53.1054,50.4451 52.1054,58.4451 51.5,66.5C 52.5,66.5 53.5,66.5 54.5,66.5C 55.5,66.5 56.5,66.5 57.5,66.5C 57.1663,63.509 58.1663,61.1757 60.5,59.5C 60.1667,62.1667 59.8333,64.8333 59.5,67.5C 56.5,67.5 53.5,67.5 50.5,67.5C 50.5,66.5 50.5,65.5 50.5,64.5C 50.5,62.1667 50.5,59.8333 50.5,57.5C 51.4345,56.4324 51.7678,55.099 51.5,53.5C 51.5,52.5 51.5,51.5 51.5,50.5C 52.3414,48.6208 52.6747,46.6208 52.5,44.5C 52.5,43.5 52.5,42.5 52.5,41.5 Z"/></g>
<g><path style="opacity:1" fill="#1685e7" d="M 65.5,66.5 C 68.7131,66.19 71.7131,66.5233 74.5,67.5C 71.0729,69.1768 68.0729,68.8435 65.5,66.5 Z"/></g>
<g><path style="opacity:1" fill="#2494f7" d="M 49.5,65.5 C 49.5,66.5 49.5,67.5 49.5,68.5C 41.9376,68.7108 35.271,71.0441 29.5,75.5C 28.1667,75.8333 26.8333,76.1667 25.5,76.5C 26.973,74.6053 28.6397,72.9387 30.5,71.5C 32.153,71.3404 33.4863,70.6737 34.5,69.5C 39.5166,68.1644 44.5166,66.8311 49.5,65.5 Z"/></g>
<g><path style="opacity:1" fill="#1461a6" d="M 62.5,65.5 C 63.5,65.5 64.5,65.5 65.5,65.5C 65.5,65.8333 65.5,66.1667 65.5,66.5C 68.0729,68.8435 71.0729,69.1768 74.5,67.5C 74.5,68.5 74.5,69.5 74.5,70.5C 70.8333,70.5 67.1667,70.5 63.5,70.5C 62.5489,69.0813 62.2155,67.4147 62.5,65.5 Z"/></g>
<g><path style="opacity:1" fill="#426485" d="M 62.5,65.5 C 62.2155,67.4147 62.5489,69.0813 63.5,70.5C 63.5,70.8333 63.5,71.1667 63.5,71.5C 59.9009,72.3439 56.2343,72.6773 52.5,72.5C 52.5,71.8333 52.5,71.1667 52.5,70.5C 57.5983,72.4074 60.9316,70.7407 62.5,65.5 Z"/></g>
<g><path style="opacity:1" fill="#4290e4" d="M 77.5,81.5 C 74.7378,82.3795 72.0711,83.5462 69.5,85C 62.026,86.8948 54.3594,88.0614 46.5,88.5C 40.4908,88.6662 34.4908,88.4995 28.5,88C 29.5981,87.2303 29.5981,86.397 28.5,85.5C 28.5,85.1667 28.5,84.8333 28.5,84.5C 44.2489,86.8317 59.5822,85.3317 74.5,80C 76.6667,77.8333 78.8333,75.6667 81,73.5C 81.6667,70.8333 81.6667,68.1667 81,65.5C 78.2816,60.111 74.7816,55.4443 70.5,51.5C 71.7211,50.5354 73.0544,50.702 74.5,52C 78.7225,55.5562 82.2225,59.7228 85,64.5C 85.6841,67.38 85.5174,70.2134 84.5,73C 82.2864,75.9242 79.9531,78.7576 77.5,81.5 Z"/></g>
<g><path style="opacity:1" fill="#2580d9" d="M 25.5,43.5 C 27.0481,43.8212 27.7148,44.8212 27.5,46.5C 24.3642,46.6031 21.6975,47.6031 19.5,49.5C 17.9731,49.427 16.9731,50.0937 16.5,51.5C 11.7749,53.8922 8.4416,57.5588 6.5,62.5C 5.83333,62.5 5.5,62.8333 5.5,63.5C 3.69622,68.4903 4.69622,72.9903 8.5,77C 13.2259,80.1488 18.2259,82.8155 23.5,85C 25.1341,85.4935 26.8008,85.6602 28.5,85.5C 29.5981,86.397 29.5981,87.2303 28.5,88C 34.4908,88.4995 40.4908,88.6662 46.5,88.5C 37.648,89.7303 28.648,89.7303 19.5,88.5C 13.0377,86.3542 7.70441,82.6875 3.5,77.5C 3.5,77.1667 3.5,76.8333 3.5,76.5C 3.67158,75.5084 3.33825,74.8417 2.5,74.5C 2.16667,74.5 1.83333,74.5 1.5,74.5C 1.92799,58.3952 9.92799,48.0618 25.5,43.5 Z"/></g>
<g><path style="opacity:1" fill="#136bbb" d="M 68.5,46.5 C 77.0476,49.7154 83.3809,55.3821 87.5,63.5C 88.3259,69.1209 86.9926,74.1209 83.5,78.5C 81.472,79.549 79.472,80.549 77.5,81.5C 79.9531,78.7576 82.2864,75.9242 84.5,73C 85.5174,70.2134 85.6841,67.38 85,64.5C 82.2225,59.7228 78.7225,55.5562 74.5,52C 73.0544,50.702 71.7211,50.5354 70.5,51.5C 69.8333,51.5 69.5,51.8333 69.5,52.5C 69.1667,52.5 68.8333,52.5 68.5,52.5C 67.5489,51.0813 67.2155,49.4147 67.5,47.5C 68.1667,47.5 68.5,47.1667 68.5,46.5 Z"/></g>
<g><path style="opacity:1" fill="#68b7fc" d="M 68.5,52.5 C 68.8333,52.5 69.1667,52.5 69.5,52.5C 70.6278,56.8033 73.1278,60.1367 77,62.5C 79.9098,71.9641 76.4098,77.7975 66.5,80C 55.5553,82.6633 44.5553,82.9967 33.5,81C 31.6854,80.2432 30.0188,79.4098 28.5,78.5C 29.8333,78.1667 31.1667,77.8333 32.5,77.5C 45.7418,81.3147 58.4085,79.8147 70.5,73C 70.8333,72.6667 71.1667,72.3333 71.5,72C 68.854,71.5026 66.1873,71.3359 63.5,71.5C 63.5,71.1667 63.5,70.8333 63.5,70.5C 67.1667,70.5 70.8333,70.5 74.5,70.5C 74.5,69.5 74.5,68.5 74.5,67.5C 71.7131,66.5233 68.7131,66.19 65.5,66.5C 65.5,66.1667 65.5,65.8333 65.5,65.5C 65.9675,61.0193 66.9675,56.686 68.5,52.5 Z"/></g>
<g><path style="opacity:1" fill="#409af8" d="M 5.5,63.5 C 5.5,64.8333 5.5,66.1667 5.5,67.5C 11.605,72.4304 17.605,77.5971 23.5,83C 25.1545,83.6077 26.8211,84.1077 28.5,84.5C 28.5,84.8333 28.5,85.1667 28.5,85.5C 26.8008,85.6602 25.1341,85.4935 23.5,85C 18.2259,82.8155 13.2259,80.1488 8.5,77C 4.69622,72.9903 3.69622,68.4903 5.5,63.5 Z"/></g>
<g><path style="opacity:1" fill="#58a9fc" d="M 70.5,51.5 C 74.7816,55.4443 78.2816,60.111 81,65.5C 81.6667,68.1667 81.6667,70.8333 81,73.5C 78.8333,75.6667 76.6667,77.8333 74.5,80C 59.5822,85.3317 44.2489,86.8317 28.5,84.5C 26.8211,84.1077 25.1545,83.6077 23.5,83C 17.605,77.5971 11.605,72.4304 5.5,67.5C 9.51383,67.3345 13.5138,67.5012 17.5,68C 20.0729,71.0553 22.7396,73.8886 25.5,76.5C 25.8212,78.0481 26.8212,78.7148 28.5,78.5C 30.0188,79.4098 31.6854,80.2432 33.5,81C 44.5553,82.9967 55.5553,82.6633 66.5,80C 76.4098,77.7975 79.9098,71.9641 77,62.5C 73.1278,60.1367 70.6278,56.8033 69.5,52.5C 69.5,51.8333 69.8333,51.5 70.5,51.5 Z"/></g>
<g><path style="opacity:1" fill="#74c4fb" d="M 63.5,71.5 C 66.1873,71.3359 68.854,71.5026 71.5,72C 71.1667,72.3333 70.8333,72.6667 70.5,73C 58.4085,79.8147 45.7418,81.3147 32.5,77.5C 38.9921,75.2103 45.6588,73.5436 52.5,72.5C 56.2343,72.6773 59.9009,72.3439 63.5,71.5 Z"/></g>
<g><path style="opacity:1" fill="#2c81d4" d="M 49.5,68.5 C 50.5,69.1667 51.5,69.8333 52.5,70.5C 52.5,71.1667 52.5,71.8333 52.5,72.5C 45.6588,73.5436 38.9921,75.2103 32.5,77.5C 31.1667,77.8333 29.8333,78.1667 28.5,78.5C 26.8212,78.7148 25.8212,78.0481 25.5,76.5C 26.8333,76.1667 28.1667,75.8333 29.5,75.5C 35.3354,73.4319 41.3354,71.9319 47.5,71C 48.756,70.5831 49.4226,69.7498 49.5,68.5 Z"/></g>
<g><path style="opacity:1" fill="#65bcfe" d="M 49.5,68.5 C 49.4226,69.7498 48.756,70.5831 47.5,71C 41.3354,71.9319 35.3354,73.4319 29.5,75.5C 35.271,71.0441 41.9376,68.7108 49.5,68.5 Z"/></g>
<g><path style="opacity:1" fill="#095da6" d="M 87.5,63.5 C 89.9399,70.6709 88.2732,76.8376 82.5,82C 64.38,90.2084 45.38,93.2084 25.5,91C 23.2774,90.4338 21.2774,89.6005 19.5,88.5C 28.648,89.7303 37.648,89.7303 46.5,88.5C 54.3594,88.0614 62.026,86.8948 69.5,85C 72.0711,83.5462 74.7378,82.3795 77.5,81.5C 79.472,80.549 81.472,79.549 83.5,78.5C 86.9926,74.1209 88.3259,69.1209 87.5,63.5 Z"/></g>
</svg>
