<?xml version="1.0" encoding="UTF-8"?>
<!DOCTYPE svg PUBLIC "-//W3C//DTD SVG 1.1//EN" "http://www.w3.org/Graphics/SVG/1.1/DTD/svg11.dtd">
<svg xmlns="http://www.w3.org/2000/svg" version="1.1" width="96px" height="96px" style="shape-rendering:geometricPrecision; text-rendering:geometricPrecision; image-rendering:optimizeQuality; fill-rule:evenodd; clip-rule:evenodd" xmlns:xlink="http://www.w3.org/1999/xlink">
<g><path style="opacity:0.03" fill="#050c0f" d="M 34.5,12.5 C 34.9174,15.1589 35.9174,17.4922 37.5,19.5C 38.2653,22.0961 38.5987,24.7628 38.5,27.5C 37.8333,27.5 37.5,27.1667 37.5,26.5C 36.7659,25.2921 36.4326,23.9587 36.5,22.5C 34.5,22.5 32.5,22.5 30.5,22.5C 26.6082,20.9379 23.2749,18.6046 20.5,15.5C 20.5,14.8333 20.1667,14.5 19.5,14.5C 19.3893,13.8826 19.056,13.3826 18.5,13C 20.5,12.3333 22.5,12.3333 24.5,13C 27.9903,15.4913 31.157,18.3246 34,21.5C 34.498,18.5184 34.6646,15.5184 34.5,12.5 Z"/></g>
<g><path style="opacity:0.977" fill="#1b3037" d="M 55.5,13.5 C 49.1667,13.5 42.8333,13.5 36.5,13.5C 36.7678,11.901 36.4345,10.5676 35.5,9.5C 36.1665,8.73369 37.6665,8.40035 40,8.5C 44.5135,8.87669 49.0135,9.37669 53.5,10C 54.9733,10.7096 55.6399,11.8762 55.5,13.5 Z"/></g>
<g><path style="opacity:0.964" fill="#264a57" d="M 35.5,9.5 C 36.4345,10.5676 36.7678,11.901 36.5,13.5C 42.8333,13.5 49.1667,13.5 55.5,13.5C 56.404,14.209 56.7373,15.209 56.5,16.5C 50.1667,16.5 43.8333,16.5 37.5,16.5C 37.5,17.5 37.5,18.5 37.5,19.5C 35.9174,17.4922 34.9174,15.1589 34.5,12.5C 34.5569,11.391 34.8902,10.391 35.5,9.5 Z"/></g>
<g><path style="opacity:0.011" fill="#000000" d="M 76.5,17.5 C 80.0757,15.9963 82.409,17.3297 83.5,21.5C 83.0431,22.2975 82.3764,22.6309 81.5,22.5C 81.5,21.8333 81.1667,21.5 80.5,21.5C 80.5,20.8333 80.1667,20.5 79.5,20.5C 79.5,19.8333 79.1667,19.5 78.5,19.5C 78.5,18.8333 78.1667,18.5 77.5,18.5C 77.5,17.8333 77.1667,17.5 76.5,17.5 Z"/></g>
<g><path style="opacity:0.004" fill="#000000" d="M 70.5,18.5 C 69.8333,17.1667 69.8333,17.1667 70.5,18.5 Z"/></g>
<g><path style="opacity:0.995" fill="#436775" d="M 56.5,16.5 C 57.3007,18.0418 57.634,19.7085 57.5,21.5C 57.5,22.8333 57.5,24.1667 57.5,25.5C 57.5,27.8333 57.5,30.1667 57.5,32.5C 56.5233,29.7131 56.19,26.7131 56.5,23.5C 55.4479,21.744 53.7812,21.0773 51.5,21.5C 47.0574,20.1985 42.3907,19.5319 37.5,19.5C 37.5,18.5 37.5,17.5 37.5,16.5C 43.8333,16.5 50.1667,16.5 56.5,16.5 Z"/></g>
<g><path style="opacity:0.946" fill="#427385" d="M 18.5,14.5 C 18.6643,17.8174 19.6643,20.8174 21.5,23.5C 20.5084,23.3284 19.8417,23.6618 19.5,24.5C 13.9252,23.5476 8.25858,23.2143 2.5,23.5C 1.22671,22.9232 1.22671,22.2565 2.5,21.5C 6.67559,18.9124 10.6756,16.0791 14.5,13C 16.0657,12.7003 17.399,13.2003 18.5,14.5 Z"/></g>
<g><path style="opacity:0.974" fill="#0a2228" d="M 18.5,14.5 C 18.8333,14.5 19.1667,14.5 19.5,14.5C 20.1667,14.5 20.5,14.8333 20.5,15.5C 23.2749,18.6046 26.6082,20.9379 30.5,22.5C 30.3893,23.1174 30.056,23.6174 29.5,24C 30.6087,25.8761 31.6087,27.7095 32.5,29.5C 32.5,29.8333 32.5,30.1667 32.5,30.5C 32.1667,30.5 31.8333,30.5 31.5,30.5C 28.1667,28.1667 24.8333,25.8333 21.5,23.5C 19.6643,20.8174 18.6643,17.8174 18.5,14.5 Z"/></g>
<g><path style="opacity:0.994" fill="#417284" d="M 75.5,17.5 C 75.8333,17.5 76.1667,17.5 76.5,17.5C 77.1667,17.5 77.5,17.8333 77.5,18.5C 78.1667,18.5 78.5,18.8333 78.5,19.5C 79.1667,19.5 79.5,19.8333 79.5,20.5C 80.1667,20.5 80.5,20.8333 80.5,21.5C 81.1667,21.5 81.5,21.8333 81.5,22.5C 81.5,22.8333 81.5,23.1667 81.5,23.5C 79.9582,24.3007 78.2915,24.634 76.5,24.5C 76.5,25.5 76.5,26.5 76.5,27.5C 74.8396,24.2302 74.5062,20.8969 75.5,17.5 Z"/></g>
<g><path style="opacity:1" fill="#284b73" d="M 30.5,22.5 C 32.5,22.5 34.5,22.5 36.5,22.5C 36.4326,23.9587 36.7659,25.2921 37.5,26.5C 34.715,25.9162 33.0483,26.9162 32.5,29.5C 31.6087,27.7095 30.6087,25.8761 29.5,24C 30.056,23.6174 30.3893,23.1174 30.5,22.5 Z"/></g>
<g><path style="opacity:1" fill="#efefee" d="M 51.5,21.5 C 53.7812,21.0773 55.4479,21.744 56.5,23.5C 55.3567,26.9758 55.1901,30.6425 56,34.5C 59.6,36.5522 63.4333,37.8855 67.5,38.5C 67.22,41.2724 67.8866,43.7724 69.5,46C 69.2716,46.3988 68.9382,46.5654 68.5,46.5C 68.1667,46.5 67.8333,46.5 67.5,46.5C 57.5404,38.408 46.5404,36.5747 34.5,41C 28.7295,45.3749 27.0629,50.8749 29.5,57.5C 30.3507,59.8816 31.684,61.8816 33.5,63.5C 33.5,63.8333 33.5,64.1667 33.5,64.5C 41.9596,72.886 51.2929,73.7193 61.5,67C 63.0414,65.6288 64.3747,64.1288 65.5,62.5C 66.1667,61.8333 66.8333,61.1667 67.5,60.5C 68.3635,59.537 69.0302,59.537 69.5,60.5C 65.0088,69.4199 57.6754,73.7532 47.5,73.5C 43.5886,73.703 39.9219,72.8697 36.5,71C 32.2012,66.5513 27.5345,62.718 22.5,59.5C 18.8333,59.5 15.1667,59.5 11.5,59.5C 11.3215,56.7835 10.8215,54.1168 10,51.5C 9.79959,49.6803 8.96626,48.347 7.5,47.5C 11.0208,46.8337 14.6875,46.1671 18.5,45.5C 21.6666,41.1758 20.6666,38.1758 15.5,36.5C 13.1184,35.6493 11.1184,34.316 9.5,32.5C 13.1464,30.1829 16.4797,27.5162 19.5,24.5C 19.8417,23.6618 20.5084,23.3284 21.5,23.5C 24.8333,25.8333 28.1667,28.1667 31.5,30.5C 33.7665,32.7626 36.4332,33.0959 39.5,31.5C 40.4603,27.8614 40.4603,24.1947 39.5,20.5C 43.4659,21.1621 47.4659,21.4955 51.5,21.5 Z"/></g>
<g><path style="opacity:0.893" fill="#63a4bb" d="M 2.5,23.5 C 8.25858,23.2143 13.9252,23.5476 19.5,24.5C 16.4797,27.5162 13.1464,30.1829 9.5,32.5C 9.16667,32.5 8.83333,32.5 8.5,32.5C 6.5,29.5 4.5,26.5 2.5,23.5 Z"/></g>
<g><path style="opacity:0.992" fill="#050e11" d="M 75.5,17.5 C 74.5062,20.8969 74.8396,24.2302 76.5,27.5C 76.5,28.1667 76.5,28.8333 76.5,29.5C 73.1667,31.1667 69.8333,32.8333 66.5,34.5C 64.4451,32.7661 63.1118,30.4328 62.5,27.5C 61.1502,26.0499 59.4835,25.3832 57.5,25.5C 57.5,24.1667 57.5,22.8333 57.5,21.5C 58.1499,21.1961 58.8165,20.8627 59.5,20.5C 61.0009,21.7515 62.6675,22.7515 64.5,23.5C 65.5223,23.1445 66.189,22.4778 66.5,21.5C 68.2303,20.9744 69.5637,19.9744 70.5,18.5C 72.0443,18.2969 73.3777,17.6302 74.5,16.5C 75.1067,16.6236 75.44,16.9569 75.5,17.5 Z"/></g>
<g><path style="opacity:0.004" fill="#000000" d="M 66.5,21.5 C 65.8333,20.1667 65.8333,20.1667 66.5,21.5 Z"/></g>
<g><path style="opacity:1" fill="#4b70bb" d="M 37.5,26.5 C 37.5,27.1667 37.8333,27.5 38.5,27.5C 37.8534,31.1567 35.8534,32.1567 32.5,30.5C 32.5,30.1667 32.5,29.8333 32.5,29.5C 33.0483,26.9162 34.715,25.9162 37.5,26.5 Z"/></g>
<g><path style="opacity:1" fill="#a5aaad" d="M 37.5,19.5 C 42.3907,19.5319 47.0574,20.1985 51.5,21.5C 47.4659,21.4955 43.4659,21.1621 39.5,20.5C 40.4603,24.1947 40.4603,27.8614 39.5,31.5C 36.4332,33.0959 33.7665,32.7626 31.5,30.5C 31.8333,30.5 32.1667,30.5 32.5,30.5C 35.8534,32.1567 37.8534,31.1567 38.5,27.5C 38.5987,24.7628 38.2653,22.0961 37.5,19.5 Z"/></g>
<g><path style="opacity:0.954" fill="#69b4cf" d="M 81.5,23.5 C 86.1074,25.5971 88.1074,29.2638 87.5,34.5C 87.5,35.1667 87.5,35.8333 87.5,36.5C 84.4114,34.0751 81.0781,32.0751 77.5,30.5C 77.5,29.8333 77.1667,29.5 76.5,29.5C 76.5,28.8333 76.5,28.1667 76.5,27.5C 76.5,26.5 76.5,25.5 76.5,24.5C 78.2915,24.634 79.9582,24.3007 81.5,23.5 Z"/></g>
<g><path style="opacity:0.973" fill="#5772a6" d="M 57.5,25.5 C 59.4835,25.3832 61.1502,26.0499 62.5,27.5C 63.1118,30.4328 64.4451,32.7661 66.5,34.5C 66.2648,35.0967 65.7648,35.4301 65,35.5C 62.511,34.3944 60.011,33.3944 57.5,32.5C 57.5,30.1667 57.5,27.8333 57.5,25.5 Z"/></g>
<g><path style="opacity:1" fill="#96999b" d="M 77.5,30.5 C 81.0781,32.0751 84.4114,34.0751 87.5,36.5C 87.1667,37.5 86.5,38.1667 85.5,38.5C 84.7703,36.955 83.437,36.1216 81.5,36C 79.5359,34.549 78.2026,32.7157 77.5,30.5 Z"/></g>
<g><path style="opacity:0.351" fill="#080d11" d="M 8.5,32.5 C 8.83333,32.5 9.16667,32.5 9.5,32.5C 11.1184,34.316 13.1184,35.6493 15.5,36.5C 16.4608,39.4261 17.1274,42.4261 17.5,45.5C 13.4454,45.8242 9.44539,45.4909 5.5,44.5C 4.82556,42.8045 4.1589,41.1379 3.5,39.5C 6.16562,39.067 8.83228,38.567 11.5,38C 10.1667,37.6667 8.83333,37.3333 7.5,37C 8.38017,35.6439 8.71351,34.1439 8.5,32.5 Z"/></g>
<g><path style="opacity:1" fill="#e0e0e0" d="M 56.5,23.5 C 56.19,26.7131 56.5233,29.7131 57.5,32.5C 60.011,33.3944 62.511,34.3944 65,35.5C 65.7648,35.4301 66.2648,35.0967 66.5,34.5C 69.8333,32.8333 73.1667,31.1667 76.5,29.5C 77.1667,29.5 77.5,29.8333 77.5,30.5C 78.2026,32.7157 79.5359,34.549 81.5,36C 83.437,36.1216 84.7703,36.955 85.5,38.5C 84.609,39.1098 83.609,39.4431 82.5,39.5C 80.0462,40.2271 77.7128,41.2271 75.5,42.5C 75.1507,45.6417 74.9841,48.975 75,52.5C 74.4169,54.0016 73.5836,55.3349 72.5,56.5C 71.914,56.2907 71.414,55.9574 71,55.5C 70.801,52.2777 69.9676,49.2777 68.5,46.5C 68.9382,46.5654 69.2716,46.3988 69.5,46C 67.8866,43.7724 67.22,41.2724 67.5,38.5C 63.4333,37.8855 59.6,36.5522 56,34.5C 55.1901,30.6425 55.3567,26.9758 56.5,23.5 Z"/></g>
<g><path style="opacity:0.136" fill="#070808" d="M 87.5,34.5 C 91.3485,34.6381 92.6818,36.8048 91.5,41C 92.7044,42.6993 94.0378,44.1993 95.5,45.5C 95.5,48.8333 95.5,52.1667 95.5,55.5C 94.4934,58.6433 92.8267,61.4767 90.5,64C 87.4448,65.2518 84.4448,65.7518 81.5,65.5C 83.664,68.4501 83.8307,71.4501 82,74.5C 77.9776,78.0233 73.811,81.3566 69.5,84.5C 66.9058,83.4078 64.7391,81.7411 63,79.5C 61.0445,82.7308 59.5445,86.2308 58.5,90C 55.0888,90.5261 51.7554,91.3594 48.5,92.5C 43.4212,91.3398 41.7546,88.3398 43.5,83.5C 44.404,84.209 44.7373,85.209 44.5,86.5C 48.1788,86.2756 51.8455,85.9422 55.5,85.5C 55.3354,82.4816 55.502,79.4816 56,76.5C 56.9947,75.9341 57.828,75.2674 58.5,74.5C 59.609,74.4431 60.609,74.1098 61.5,73.5C 63.4807,75.1436 65.4807,76.8103 67.5,78.5C 71.2739,76.2294 74.6072,73.3961 77.5,70C 75.5056,67.8425 74.1723,65.3425 73.5,62.5C 73.8333,61.8333 74.1667,61.1667 74.5,60.5C 78.7899,59.8889 83.1233,59.2223 87.5,58.5C 88.9699,55.727 90.3032,52.8937 91.5,50C 91.4301,49.2352 91.0967,48.7352 90.5,48.5C 88.3757,45.0425 85.3757,42.7092 81.5,41.5C 81.8627,40.8165 82.1961,40.1499 82.5,39.5C 83.609,39.4431 84.609,39.1098 85.5,38.5C 86.5,38.1667 87.1667,37.5 87.5,36.5C 87.5,35.8333 87.5,35.1667 87.5,34.5 Z"/></g>
<g><path style="opacity:1" fill="#8c5614" d="M 67.5,46.5 C 68.4469,48.7345 69.1136,51.0678 69.5,53.5C 69.1136,55.9322 68.4469,58.2655 67.5,60.5C 66.8333,61.1667 66.1667,61.8333 65.5,62.5C 66.3055,59.7146 66.9722,56.8813 67.5,54C 67.3461,50.5288 66.0128,47.6955 63.5,45.5C 56.5374,40.8901 48.8707,39.3901 40.5,41C 37.9096,42.4451 35.243,43.6118 32.5,44.5C 32.3921,46.7834 31.5588,48.7834 30,50.5C 29.5034,52.8098 29.3367,55.1432 29.5,57.5C 27.0629,50.8749 28.7295,45.3749 34.5,41C 46.5404,36.5747 57.5404,38.408 67.5,46.5 Z"/></g>
<g><path style="opacity:0.004" fill="#000000" d="M 3.5,45.5 C 3.63101,46.2389 3.46434,46.9056 3,47.5C 2.30831,46.5632 2.47498,45.8966 3.5,45.5 Z"/></g>
<g><path style="opacity:1" fill="#d48323" d="M 63.5,45.5 C 64.5396,49.7799 64.7062,54.1132 64,58.5C 62.5945,61.4086 60.4278,63.4086 57.5,64.5C 58.5,63.1667 59.5,61.8333 60.5,60.5C 63.1667,56.8333 63.1667,53.1667 60.5,49.5C 59.2228,47.8516 58.2228,46.0183 57.5,44C 51.2241,42.5755 44.8907,42.2422 38.5,43C 37.6195,43.7083 36.9528,44.5416 36.5,45.5C 34.8333,46.5 33.5,47.8333 32.5,49.5C 31.8418,50.7933 31.5085,52.2933 31.5,54C 31.7307,57.2819 32.3974,60.4486 33.5,63.5C 31.684,61.8816 30.3507,59.8816 29.5,57.5C 29.3367,55.1432 29.5034,52.8098 30,50.5C 31.5588,48.7834 32.3921,46.7834 32.5,44.5C 35.243,43.6118 37.9096,42.4451 40.5,41C 48.8707,39.3901 56.5374,40.8901 63.5,45.5 Z M 54.5,56.5 C 53.8333,57.8333 52.8333,58.8333 51.5,59.5C 50.1667,59.5 48.8333,59.5 47.5,59.5C 49.0304,56.9791 51.3637,55.9791 54.5,56.5 Z"/></g>
<g><path style="opacity:1" fill="#fdb95a" d="M 60.5,49.5 C 59.5,51.5 58.5,53.5 57.5,55.5C 57.0908,47.4127 53.0908,44.7461 45.5,47.5C 43.8333,49.8333 41.8333,51.8333 39.5,53.5C 40.7284,50.9249 42.3951,48.5916 44.5,46.5C 41.8908,46.728 39.2241,46.3946 36.5,45.5C 36.9528,44.5416 37.6195,43.7083 38.5,43C 44.8907,42.2422 51.2241,42.5755 57.5,44C 58.2228,46.0183 59.2228,47.8516 60.5,49.5 Z"/></g>
<g><path style="opacity:1" fill="#172730" d="M 82.5,39.5 C 82.1961,40.1499 81.8627,40.8165 81.5,41.5C 85.3757,42.7092 88.3757,45.0425 90.5,48.5C 86.0685,48.7693 81.7352,48.436 77.5,47.5C 76.8333,45.8333 76.1667,44.1667 75.5,42.5C 77.7128,41.2271 80.0462,40.2271 82.5,39.5 Z"/></g>
<g><path style="opacity:0.004" fill="#000000" d="M 4.5,48.5 C 4.63101,49.2389 4.46434,49.9056 4,50.5C 3.30831,49.5632 3.47498,48.8966 4.5,48.5 Z"/></g>
<g><path style="opacity:0.961" fill="#3b5464" d="M 15.5,36.5 C 20.6666,38.1758 21.6666,41.1758 18.5,45.5C 14.6875,46.1671 11.0208,46.8337 7.5,47.5C 8.5,51.5 9.5,55.5 10.5,59.5C 7.74605,56.2322 5.74605,52.5655 4.5,48.5C 4.73731,47.209 4.40397,46.209 3.5,45.5C 3.03876,43.4496 2.37209,41.4496 1.5,39.5C 2.2565,38.2267 2.92317,38.2267 3.5,39.5C 4.1589,41.1379 4.82556,42.8045 5.5,44.5C 9.44539,45.4909 13.4454,45.8242 17.5,45.5C 17.1274,42.4261 16.4608,39.4261 15.5,36.5 Z"/></g>
<g><path style="opacity:1" fill="#c47408" d="M 45.5,47.5 C 47.8568,47.3367 50.1902,47.5034 52.5,48C 54.1554,49.4443 54.822,51.2776 54.5,53.5C 51.4281,51.3018 48.0947,50.9685 44.5,52.5C 41.4034,56.5389 42.4034,58.8722 47.5,59.5C 48.8333,59.5 50.1667,59.5 51.5,59.5C 47.1218,61.158 43.1218,60.4913 39.5,57.5C 39.5,56.1667 39.5,54.8333 39.5,53.5C 41.8333,51.8333 43.8333,49.8333 45.5,47.5 Z"/></g>
<g><path style="opacity:1" fill="#929292" d="M 7.5,47.5 C 8.96626,48.347 9.79959,49.6803 10,51.5C 10.8215,54.1168 11.3215,56.7835 11.5,59.5C 15.1667,59.5 18.8333,59.5 22.5,59.5C 22.5,60.1667 22.5,60.8333 22.5,61.5C 18.6002,60.5701 14.6002,60.2367 10.5,60.5C 10.5,60.1667 10.5,59.8333 10.5,59.5C 9.5,55.5 8.5,51.5 7.5,47.5 Z"/></g>
<g><path style="opacity:0.177" fill="#0a0400" d="M 54.5,53.5 C 54.5,54.5 54.5,55.5 54.5,56.5C 51.3637,55.9791 49.0304,56.9791 47.5,59.5C 42.4034,58.8722 41.4034,56.5389 44.5,52.5C 48.0947,50.9685 51.4281,51.3018 54.5,53.5 Z"/></g>
<g><path style="opacity:1" fill="#feedaa" d="M 36.5,45.5 C 39.2241,46.3946 41.8908,46.728 44.5,46.5C 42.3951,48.5916 40.7284,50.9249 39.5,53.5C 38.2921,54.2341 36.9587,54.5674 35.5,54.5C 35.8808,52.0582 35.2141,51.3915 33.5,52.5C 32.6143,51.675 32.281,50.675 32.5,49.5C 33.5,47.8333 34.8333,46.5 36.5,45.5 Z"/></g>
<g><path style="opacity:1" fill="#ffd97a" d="M 60.5,49.5 C 63.1667,53.1667 63.1667,56.8333 60.5,60.5C 60.44,59.9569 60.1067,59.6236 59.5,59.5C 58.1482,60.5244 56.8149,61.5244 55.5,62.5C 55.5,61.8333 55.5,61.1667 55.5,60.5C 56.4408,58.9505 57.1075,57.2838 57.5,55.5C 58.5,53.5 59.5,51.5 60.5,49.5 Z"/></g>
<g><path style="opacity:1" fill="#909293" d="M 77.5,47.5 C 81.7352,48.436 86.0685,48.7693 90.5,48.5C 91.0967,48.7352 91.4301,49.2352 91.5,50C 90.3032,52.8937 88.9699,55.727 87.5,58.5C 83.1233,59.2223 78.7899,59.8889 74.5,60.5C 78.0844,58.8818 82.0844,57.8818 86.5,57.5C 87.1823,54.6345 88.5156,52.1345 90.5,50C 85.7197,50.1084 81.3864,49.275 77.5,47.5 Z"/></g>
<g><path style="opacity:0.1" fill="#020303" d="M 10.5,60.5 C 14.6002,60.2367 18.6002,60.5701 22.5,61.5C 22.106,63.7099 20.7727,65.0432 18.5,65.5C 14.5641,66.7983 11.5641,65.6317 9.5,62C 9.56993,61.2352 9.90326,60.7352 10.5,60.5 Z"/></g>
<g><path style="opacity:1" fill="#ea8f10" d="M 45.5,47.5 C 53.0908,44.7461 57.0908,47.4127 57.5,55.5C 57.1075,57.2838 56.4408,58.9505 55.5,60.5C 51.2981,63.3609 46.6314,64.1942 41.5,63C 39.8446,61.5557 39.178,59.7224 39.5,57.5C 43.1218,60.4913 47.1218,61.158 51.5,59.5C 52.8333,58.8333 53.8333,57.8333 54.5,56.5C 54.5,55.5 54.5,54.5 54.5,53.5C 54.822,51.2776 54.1554,49.4443 52.5,48C 50.1902,47.5034 47.8568,47.3367 45.5,47.5 Z"/></g>
<g><path style="opacity:1" fill="#f8a949" d="M 32.5,49.5 C 32.281,50.675 32.6143,51.675 33.5,52.5C 35.2141,51.3915 35.8808,52.0582 35.5,54.5C 36.9587,54.5674 38.2921,54.2341 39.5,53.5C 39.5,54.8333 39.5,56.1667 39.5,57.5C 39.178,59.7224 39.8446,61.5557 41.5,63C 46.6314,64.1942 51.2981,63.3609 55.5,60.5C 55.5,61.1667 55.5,61.8333 55.5,62.5C 55.5,63.1667 55.5,63.8333 55.5,64.5C 55.0825,65.2216 54.4158,65.7216 53.5,66C 48.1149,66.7335 42.7815,66.5668 37.5,65.5C 36.1667,65.1667 34.8333,64.8333 33.5,64.5C 33.5,64.1667 33.5,63.8333 33.5,63.5C 32.3974,60.4486 31.7307,57.2819 31.5,54C 31.5085,52.2933 31.8418,50.7933 32.5,49.5 Z"/></g>
<g><path style="opacity:1" fill="#a56414" d="M 63.5,45.5 C 66.0128,47.6955 67.3461,50.5288 67.5,54C 66.9722,56.8813 66.3055,59.7146 65.5,62.5C 64.3747,64.1288 63.0414,65.6288 61.5,67C 51.2929,73.7193 41.9596,72.886 33.5,64.5C 34.8333,64.8333 36.1667,65.1667 37.5,65.5C 39.237,68.0121 41.737,69.0121 45,68.5C 48.2351,68.4182 51.4018,67.9182 54.5,67C 56.1193,66.7645 57.1193,65.9311 57.5,64.5C 60.4278,63.4086 62.5945,61.4086 64,58.5C 64.7062,54.1132 64.5396,49.7799 63.5,45.5 Z"/></g>
<g><path style="opacity:1" fill="#c8c7c8" d="M 75.5,42.5 C 76.1667,44.1667 76.8333,45.8333 77.5,47.5C 81.3864,49.275 85.7197,50.1084 90.5,50C 88.5156,52.1345 87.1823,54.6345 86.5,57.5C 82.0844,57.8818 78.0844,58.8818 74.5,60.5C 74.1667,61.1667 73.8333,61.8333 73.5,62.5C 72.5222,62.811 71.8555,63.4777 71.5,64.5C 72.5,65.8333 73.5,67.1667 74.5,68.5C 73.6086,69.5896 72.6086,69.5896 71.5,68.5C 68.6051,71.281 65.2718,72.9477 61.5,73.5C 60.609,74.1098 59.609,74.4431 58.5,74.5C 57.1779,74.33 56.0113,74.6634 55,75.5C 54.5026,78.146 54.3359,80.8127 54.5,83.5C 51.8333,83.5 49.1667,83.5 46.5,83.5C 46.2455,76.2024 42.5789,73.5358 35.5,75.5C 32.7977,80.7857 31.9644,80.4523 33,74.5C 32.6667,74.8333 32.3333,75.1667 32,75.5C 28.4281,75.1674 25.2615,74.1674 22.5,72.5C 26.3486,68.8704 26.3486,65.2037 22.5,61.5C 22.5,60.8333 22.5,60.1667 22.5,59.5C 27.5345,62.718 32.2012,66.5513 36.5,71C 39.9219,72.8697 43.5886,73.703 47.5,73.5C 57.6754,73.7532 65.0088,69.4199 69.5,60.5C 69.0302,59.537 68.3635,59.537 67.5,60.5C 68.4469,58.2655 69.1136,55.9322 69.5,53.5C 69.1136,51.0678 68.4469,48.7345 67.5,46.5C 67.8333,46.5 68.1667,46.5 68.5,46.5C 69.9676,49.2777 70.801,52.2777 71,55.5C 71.414,55.9574 71.914,56.2907 72.5,56.5C 73.5836,55.3349 74.4169,54.0016 75,52.5C 74.9841,48.975 75.1507,45.6417 75.5,42.5 Z"/></g>
<g><path style="opacity:1" fill="#fef6e4" d="M 60.5,60.5 C 59.5,61.8333 58.5,63.1667 57.5,64.5C 56.8333,64.5 56.1667,64.5 55.5,64.5C 55.5,63.8333 55.5,63.1667 55.5,62.5C 56.8149,61.5244 58.1482,60.5244 59.5,59.5C 60.1067,59.6236 60.44,59.9569 60.5,60.5 Z"/></g>
<g><path style="opacity:1" fill="#ce7f24" d="M 55.5,64.5 C 56.1667,64.5 56.8333,64.5 57.5,64.5C 57.1193,65.9311 56.1193,66.7645 54.5,67C 51.4018,67.9182 48.2351,68.4182 45,68.5C 41.737,69.0121 39.237,68.0121 37.5,65.5C 42.7815,66.5668 48.1149,66.7335 53.5,66C 54.4158,65.7216 55.0825,65.2216 55.5,64.5 Z"/></g>
<g><path style="opacity:0.095" fill="#07090a" d="M 18.5,67.5 C 19.3382,67.8417 19.6716,68.5084 19.5,69.5C 20.404,70.209 20.7373,71.209 20.5,72.5C 23.2794,76.1094 26.6128,79.2761 30.5,82C 31.635,82.7494 32.635,82.5827 33.5,81.5C 34.7661,79.2902 36.2661,77.2902 38,75.5C 41.743,76.3146 43.5764,78.6479 43.5,82.5C 43.1667,82.5 42.8333,82.5 42.5,82.5C 42.1667,81.1667 41.8333,81.1667 41.5,82.5C 39.3175,83.2997 37.6508,84.7997 36.5,87C 34.0288,87.7063 31.6954,87.373 29.5,86C 25.6667,82.8333 21.8333,79.6667 18,76.5C 17.5,74.5 17,72.5 16.5,70.5C 16.9424,69.2613 17.6091,68.2613 18.5,67.5 Z"/></g>
<g><path style="opacity:1" fill="#66aed8" d="M 22.5,61.5 C 26.3486,65.2037 26.3486,68.8704 22.5,72.5C 21.8333,72.5 21.1667,72.5 20.5,72.5C 20.7373,71.209 20.404,70.209 19.5,69.5C 19.6716,68.5084 19.3382,67.8417 18.5,67.5C 18.5,66.8333 18.5,66.1667 18.5,65.5C 20.7727,65.0432 22.106,63.7099 22.5,61.5 Z"/></g>
<g><path style="opacity:1" fill="#9d9fa1" d="M 73.5,62.5 C 74.1723,65.3425 75.5056,67.8425 77.5,70C 74.6072,73.3961 71.2739,76.2294 67.5,78.5C 65.4807,76.8103 63.4807,75.1436 61.5,73.5C 65.2718,72.9477 68.6051,71.281 71.5,68.5C 72.6086,69.5896 73.6086,69.5896 74.5,68.5C 73.5,67.1667 72.5,65.8333 71.5,64.5C 71.8555,63.4777 72.5222,62.811 73.5,62.5 Z"/></g>
<g><path style="opacity:0.004" fill="#000000" d="M 41.5,82.5 C 41.8333,82.5 42.1667,82.5 42.5,82.5C 42.1667,85.1667 41.8333,85.1667 41.5,82.5 Z"/></g>
<g><path style="opacity:0.998" fill="#9c9e9f" d="M 20.5,72.5 C 21.1667,72.5 21.8333,72.5 22.5,72.5C 25.2615,74.1674 28.4281,75.1674 32,75.5C 32.3333,75.1667 32.6667,74.8333 33,74.5C 31.9644,80.4523 32.7977,80.7857 35.5,75.5C 42.5789,73.5358 46.2455,76.2024 46.5,83.5C 49.1667,83.5 51.8333,83.5 54.5,83.5C 54.3359,80.8127 54.5026,78.146 55,75.5C 56.0113,74.6634 57.1779,74.33 58.5,74.5C 57.828,75.2674 56.9947,75.9341 56,76.5C 55.502,79.4816 55.3354,82.4816 55.5,85.5C 51.8455,85.9422 48.1788,86.2756 44.5,86.5C 44.7373,85.209 44.404,84.209 43.5,83.5C 43.5,83.1667 43.5,82.8333 43.5,82.5C 43.5764,78.6479 41.743,76.3146 38,75.5C 36.2661,77.2902 34.7661,79.2902 33.5,81.5C 32.635,82.5827 31.635,82.7494 30.5,82C 26.6128,79.2761 23.2794,76.1094 20.5,72.5 Z"/></g>
</svg>
