<?xml version="1.0" encoding="UTF-8"?>
<svg width="128px" height="128px" version="1.1" xmlns="http://www.w3.org/2000/svg">
    <rect width="128" height="128" fill="#6596bd"/>
    <g stroke-linecap="round" stroke="red" stroke-width="5.0" >
        <path d="m98.9 104.1 15.1 0.2"/>
        <path d="m48.0 104.1 15.1 0.2"/>
        <path d="m72.1  78.7 15.1 0.2"/>
        <path d="m99.0  45.3 15.1 0.2"/>
        <path d="m48.6  44.1 15.1 0.2"/>
        <path d="m17.6  19.2 15.1 0.2"/>
        <path d="m19.4  78.8 15.1 0.2"/>
        <path d="m72.3  19.3 15.1 0.2"/>
        <path d="m17.6  19.1 0.0 15.1"/>
        <path d="m87.6  19.5 0.0 15.1"/>
        <path d="m48    45.0 0.0 15.1"/>
        <path d="m18.3  64.3 0.0 15.1"/>
        <path d="m48.2  87.9 0.0 15.1"/>
        <path d="m87.8  63.7 0.0 15.1"/>
        <path d="m114.4 44.0 0.0 15.1"/>
        <path d="m114.1 88.5 0.0 15.1"/>

        <path d="m88.3  19.3 10.2 8.8"/>
        <path d="m104.5 35   10.2 8.8"/>
        <path d="m19.5  20.8 10.2 8.8"/>
        <path d="m37.5  35.5 10.2 8.8"/>
        <path d="m17.9  79.5 10.2 8.8"/>
        <path d="m36.9  95.7 10.2 8.8"/>
        <path d="m86.6  78.4 10.2 8.8"/>
        <path d="m103.9 94.3 10.2 8.8"/>
    </g>
</svg>
