P3
16 16
255
99  148 189 99  148 189 66  166 193 0   204 204 7   199 202 98  148 189 
99  148 189 99  148 189 99  148 189 99  148 189 99  148 189 99  148 189 
99  148 189 99  148 189 99  148 189 99  148 189 
99  148 189 99  148 189 43  179 197 0   204 204 29  187 199 99  148 189 
99  148 189 99  148 189 99  148 189 99  148 189 99  148 189 99  148 189 
99  148 189 92  151 189 99  148 189 99  148 189 
99  148 189 99  148 189 20  192 200 0   204 204 52  174 196 99  148 189 
99  148 189 99  148 189 99  148 189 99  148 189 99  148 189 99  148 189 
82  157 191 5   200 203 52  174 196 99  148 189 
99  148 189 95  150 189 2   202 203 0   204 204 75  161 192 99  148 189 
99  148 189 60  169 194 80  158 191 99  148 189 99  148 189 94  150 189 
15  195 201 2   202 203 76  160 192 99  148 189 
99  148 189 74  161 192 0   204 204 2   202 203 95  149 189 99  148 189 
87  154 190 3   202 203 19  192 201 98  148 189 98  148 189 33  184 198 
0   204 204 50  175 196 99  148 189 99  148 189 
99  148 189 97  148 189 96  142 99  167 214 89  133 171 146 99  148 188 
39  181 198 0   204 204 67  165 193 99  148 189 57  171 195 0   204 204 
27  188 199 98  148 189 99  148 189 99  148 189 
99  148 189 84  118 147 55  55  49  237 237 4   255 255 0   205 236 47  
2   202 203 26  199 190 99  149 187 81  157 191 3   201 203 12  197 202 
91  152 190 99  148 189 99  148 189 99  148 189 
99  148 189 87  125 157 51  51  51  163 163 22  255 255 0   102 224 122 
0   204 204 173 238 65  241 245 16  156 222 89  11  197 202 78  159 192 
99  148 189 99  148 189 99  148 189 99  148 189 
99  148 189 98  147 188 58  65  72  86  86  42  224 248 24  6   205 199 
49  213 164 252 254 1   255 255 0   254 254 0   124 168 155 99  148 189 
99  148 189 99  148 189 99  148 189 73  162 192 
99  148 189 99  148 189 76  102 123 51  51  51  67  188 130 0   204 204 
175 239 63  255 255 0   255 255 0   255 255 0   186 207 83  99  148 189 
99  148 189 95  150 189 42  179 197 0   203 203 
99  148 189 99  148 189 93  137 174 51  52  52  31  110 110 39  183 153 
248 249 2   255 255 0   255 255 0   255 255 0   241 246 15  102 150 184 
79  158 191 15  194 201 0   204 204 16  194 201 
99  148 189 99  148 189 99  148 189 65  79  90  51  51  51  52  52  52  
62  62  49  123 123 33  190 190 16  246 246 2   255 255 0   91  198 151 
2   202 203 0   203 203 42  179 197 95  149 189 
99  148 189 99  148 189 99  148 189 96  143 182 82  114 141 67  83  96  
54  56  58  52  52  52  52  52  52  60  60  49  119 119 34  89  172 103 
11  197 202 72  163 193 99  148 189 99  148 189 
99  148 189 99  148 189 99  148 189 99  148 189 99  148 189 99  148 189 
97  144 183 83  116 144 68  86  100 54  57  59  52  52  52  84  118 146 
93  151 189 99  148 189 99  148 189 99  148 189 
99  148 189 99  148 189 99  148 189 99  148 189 99  148 189 99  148 189 
99  148 189 99  148 189 99  148 189 97  145 185 88  125 157 98  147 188 
99  148 189 99  148 189 99  148 189 99  148 189 
99  148 189 99  148 189 99  148 189 99  148 189 99  148 189 99  148 189 
99  148 189 99  148 189 99  148 189 99  148 189 99  148 189 99  148 189 
99  148 189 99  148 189 99  148 189 99  148 189 
